# Blender v2.79 (sub 0) OBJ File: ''
# www.blender.org
mtllib player.mtl
o Cube.001
v -0.246454 1.296738 0.408982
v -0.246454 1.772197 0.408982
v -0.246454 1.296738 -0.426845
v -0.246454 1.772197 -0.426845
v 0.338392 1.296738 0.408982
v 0.338392 1.772197 0.408982
v 0.338392 1.296738 -0.426845
v 0.338392 1.772197 -0.426845
vn -1.0000 0.0000 0.0000
vn 0.0000 0.0000 -1.0000
vn 1.0000 0.0000 0.0000
vn 0.0000 0.0000 1.0000
vn 0.0000 -1.0000 0.0000
vn 0.0000 1.0000 0.0000
usemtl None
s off
f 1//1 2//1 4//1 3//1
f 3//2 4//2 8//2 7//2
f 7//3 8//3 6//3 5//3
f 5//4 6//4 2//4 1//4
f 3//5 7//5 5//5 1//5
f 8//6 4//6 2//6 6//6
o Cube
v 0.567359 -0.676090 -0.624002
v 0.567359 -0.676090 0.597932
v -0.420430 -0.676090 0.597932
v -0.420430 -0.676090 -0.624002
v 0.567360 1.389782 -0.624001
v 0.567359 1.389782 0.597932
v -0.420431 1.389782 0.597931
v -0.420430 1.389782 -0.624002
vn 0.0000 -1.0000 -0.0000
vn 0.0000 1.0000 0.0000
vn 1.0000 0.0000 0.0000
vn -0.0000 -0.0000 1.0000
vn -1.0000 -0.0000 -0.0000
vn 0.0000 0.0000 -1.0000
usemtl Material
s off
f 9//7 10//7 11//7 12//7
f 13//8 16//8 15//8 14//8
f 9//9 13//9 14//9 10//9
f 10//10 14//10 15//10 11//10
f 11//11 15//11 16//11 12//11
f 13//12 9//12 12//12 16//12
